<svg width="146" height="40" viewBox="0 0 146 40" fill="white" xmlns="http://www.w3.org/2000/svg">
<g clip-path="url(#clip0_4736_45119)">
<path d="M31.4271 28.4664C29.3528 34.7486 23.4301 39.2969 16.4615 39.2969C7.77194 39.2969 0.702114 32.2274 0.702114 23.5381C0.702114 14.8481 7.77194 7.77863 16.4615 7.77863C19.1072 7.77863 21.6009 8.43692 23.7925 9.59343L24.3565 9.09743C22.0112 7.81011 19.3208 7.07617 16.4615 7.07617C7.38429 7.07617 0 14.4605 0 23.5381C0 32.6145 7.38429 39.9993 16.4615 39.9993C23.8352 39.9993 30.0919 35.1259 32.1805 28.4314L31.4271 28.4664Z" fill="white"/>
<path d="M5.91406 28.6106C15.4177 27.7356 24.8341 26.2797 34.1166 23.9414C33.973 24.5831 33.8296 25.2235 33.6862 25.8652C21.8107 28.5716 13.5277 28.821 5.91406 28.6106Z" fill="#0098DA"/>
<path d="M7.42578 27.6674C16.327 26.2694 25.4404 24.0544 34.7994 20.8887C34.6526 21.5447 34.5058 22.2012 34.359 22.8578C23.9785 26.1215 15.1249 27.5786 7.42578 27.6674Z" fill="#0098DA"/>
<path d="M8.875 26.6635C17.6051 24.4874 26.494 21.4398 35.4921 17.793C35.3441 18.4535 35.1965 19.1141 35.0485 19.7746C25.5177 23.5172 16.6996 25.9811 8.875 26.6635Z" fill="#51C2E1"/>
<path d="M10.3223 25.4775C19.1248 22.8032 27.7815 18.7802 36.3511 13.959C36.1699 14.7698 35.9887 15.58 35.807 16.3902C25.5441 21.4855 16.8488 24.7487 10.3223 25.4775Z" fill="#9FD7E0"/>
<path d="M12.1953 24.2226C22.0799 19.4421 30.1179 14.4891 37.3582 9.46094C37.1583 10.3531 36.9589 11.2454 36.759 12.1382C28.5487 17.3785 20.3554 21.7203 12.1953 24.2226Z" fill="#51C2E1"/>
<path d="M13.6348 22.6695C23.3542 16.525 31.7856 10.2743 38.6039 3.89062C38.3605 4.98063 38.1162 6.07131 37.872 7.16131C29.8084 14.1195 21.554 18.9126 13.6348 22.6695Z" fill="#0098DA"/>
<path d="M39.1608 0C38.2442 0.0240571 37.327 0.0475429 36.4102 0.0713714C33.0111 4.22771 29.5818 7.82406 26.1354 11.108C22.4014 14.6659 18.6476 17.8569 14.8906 20.9963C23.1204 15.4429 31.2857 9.22434 39.1608 0Z" fill="#0098DA"/>
<path d="M53.5961 31.0527H43.0977V31.6439H53.5961V31.0527Z" fill="white"/>
<path d="M145.268 31.0527H134.77V31.6439H145.268V31.0527Z" fill="white"/>
<path d="M57.4002 30.4157H61.401V27.2029C61.401 26.6381 62.1946 26.6381 62.1946 27.2029V34.0637C62.1946 34.6406 61.401 34.664 61.401 34.0637V31.1571C60.02 31.1571 58.8026 31.1571 57.4002 31.1571V34.0637C57.4002 34.676 56.6172 34.605 56.6172 34.0637V27.2029C56.6172 26.626 57.4002 26.6616 57.4002 27.2029V30.4157Z" fill="white"/>
<path d="M66.9003 28.0125L65.1824 31.7178H68.607L66.9003 28.0125ZM64.8564 32.4587L63.9756 34.3171C63.7798 34.7523 63.0626 34.4467 63.258 33.976L66.5414 26.9776C66.6067 26.8245 66.759 26.7539 66.9003 26.7539C67.0416 26.7539 67.172 26.8245 67.248 26.9776L70.5204 33.9404C70.8032 34.4467 69.9987 34.7403 69.7919 34.2816L68.9439 32.4588H64.8564V32.4587Z" fill="white"/>
<path d="M70.1731 27.3481C69.9623 26.8383 70.7272 26.5063 70.9492 27.0161L73.7984 33.0844L76.5817 27.0402C76.7589 26.5539 77.5129 26.8149 77.3464 27.3481L74.1533 34.2576C73.9982 34.5655 73.5991 34.6367 73.4105 34.2221L70.1731 27.3481Z" fill="white"/>
<path d="M80.445 28.0199L78.7274 31.708H82.152L80.445 28.0199ZM78.4011 32.4453L77.5206 34.2952C77.3248 34.7281 76.6075 34.4236 76.803 33.9557L80.0863 26.99C80.1514 26.8375 80.3036 26.7676 80.445 26.7676C80.5863 26.7676 80.7167 26.8375 80.793 26.99L84.0654 33.9202C84.348 34.4236 83.5436 34.7166 83.3369 34.2602L82.4891 32.4453H78.4011Z" fill="white"/>
<path d="M90.1106 31.4028L87.3112 27.4411C86.9795 26.9681 87.7097 26.5306 88.0084 27.0036L90.5088 30.6579L93.0421 26.9915C93.3188 26.542 94.0048 26.9205 93.706 27.417L90.9291 31.4028V34.0518C90.9291 34.3477 90.7078 34.4899 90.5197 34.4899C90.2986 34.4899 90.1106 34.3477 90.1106 34.0518V31.4028Z" fill="white"/>
<path d="M95.2208 30.551C95.2208 32.4714 96.4301 33.6893 98.009 33.6893C99.5208 33.6893 100.764 32.5184 100.764 30.551C100.764 29.0401 99.8118 27.8337 98.4345 27.5997C98.0985 27.5527 97.7739 27.5527 97.4603 27.5997C96.1053 27.8222 95.2208 28.9581 95.2208 30.551ZM94.3809 30.5154C94.3809 28.6771 95.5675 27.1077 97.3482 26.8153C97.7627 26.7562 98.1433 26.7683 98.5352 26.8153C100.26 27.0963 101.593 28.5951 101.593 30.5154C101.593 32.9513 99.9128 34.4971 98.0091 34.4971C95.9933 34.4972 94.3809 32.9983 94.3809 30.5154Z" fill="white"/>
<path d="M103.214 34.506C102.912 34.506 102.789 34.3507 102.789 34.0633V27.1969C102.789 26.6349 103.617 26.6349 103.617 27.1969V33.7165H107.802C108.373 33.7165 108.373 34.506 107.802 34.506H103.214Z" fill="white"/>
<path d="M109.66 34.506C109.357 34.506 109.234 34.3507 109.234 34.0633V27.1969C109.234 26.6349 110.063 26.6349 110.063 27.1969V33.7165H114.248C114.818 33.7165 114.818 34.506 114.248 34.506H109.66Z" fill="white"/>
<path d="M118.775 28.0155L117.057 31.7146H120.482L118.775 28.0155ZM116.731 32.4537L115.851 34.3092C115.655 34.7433 114.938 34.4382 115.133 33.9686L118.416 26.9828C118.482 26.8297 118.634 26.7598 118.775 26.7598C118.916 26.7598 119.047 26.8297 119.123 26.9828L122.396 33.9331C122.678 34.4382 121.874 34.7312 121.667 34.2737L120.819 32.4537H116.731Z" fill="white"/>
<path d="M124.221 30.9788H126.507C127.99 30.9788 128.635 30.2443 128.612 29.3417C128.601 28.3548 127.82 27.5601 126.507 27.5601H124.221V30.9788ZM124.221 31.7368V34.0722C124.221 34.6256 123.395 34.6256 123.395 34.0842V27.1753C123.395 26.9225 123.565 26.7539 123.814 26.7539H126.496C128.454 26.7539 129.45 27.9334 129.45 29.3417C129.45 30.5573 128.827 31.4363 127.435 31.6892L129.269 33.7953C129.699 34.2529 129.076 34.7821 128.703 34.3733L126.416 31.7368H124.221Z" fill="white"/>
<path d="M130.809 27.1889C130.809 26.611 131.624 26.6224 131.624 27.1889V34.0991C131.624 34.63 130.809 34.6535 130.809 34.0991V27.1889Z" fill="white"/>
<path d="M48.5325 14.3581L45.9972 19.622H51.0518L48.5325 14.3581ZM45.5155 20.6748L44.2159 23.3153C43.9272 23.9334 42.8681 23.4988 43.1568 22.8308L48.0029 12.8874C48.0993 12.6701 48.3241 12.5703 48.5325 12.5703C48.7409 12.5703 48.9338 12.6701 49.0459 12.8874L53.876 22.7803C54.2934 23.4988 53.1059 23.9174 52.8011 23.2655L51.5494 20.6748H45.5155V20.6748Z" fill="white"/>
<path d="M56.8134 22.4168H63.6656C64.4197 22.4168 64.436 23.5607 63.6656 23.6129H55.7383C55.1128 23.6129 54.9198 23.0756 55.2731 22.6071L62.4621 13.7142H55.963C55.2569 13.7142 55.2412 12.6219 55.963 12.5703H63.6017C64.2593 12.5703 64.436 13.1076 64.0667 13.6105L56.8134 22.4168Z" fill="white"/>
<path d="M77.3235 18.5813H80.5653C82.6676 18.5813 83.5822 17.5365 83.5498 16.2521C83.5341 14.8479 82.4268 13.7171 80.5653 13.7171H77.3235V18.5813ZM77.3235 19.6599V22.9821C77.3235 23.77 76.1523 23.77 76.1523 22.9993V13.1695C76.1523 12.81 76.3929 12.5703 76.7458 12.5703H80.5489C83.3253 12.5703 84.7376 14.2481 84.7376 16.2521C84.7376 17.9821 83.8549 19.2321 81.8809 19.5916L84.4807 22.5882C85.0902 23.2396 84.2081 23.9925 83.6782 23.4105L80.4368 19.6599H77.3235Z" fill="white"/>
<path d="M87.8846 22.4844H91.4793C92.8912 22.4844 94.4478 22.0853 94.4478 20.3312C94.4478 18.9597 93.3566 18.3696 91.9603 18.3696H87.8845V22.4844H87.8846ZM87.8846 13.6987V17.2407H91.1579C92.538 17.2407 93.7416 16.8416 93.7416 15.5737C93.7416 14.0812 92.1048 13.6987 91.11 13.6987H87.8846ZM91.4793 23.6129H87.3066C86.9861 23.6129 86.7129 23.3354 86.7129 22.9879V13.1953C86.7129 12.8478 86.9861 12.5703 87.3066 12.5703H91.11C92.6026 12.5703 94.9131 13.1088 94.9131 15.5738C94.9131 16.4769 94.512 17.2756 93.6778 17.6403C94.8489 18.0394 95.6511 18.9253 95.6511 20.3313C95.651 22.9185 93.5011 23.6129 91.4793 23.6129Z" fill="white"/>
<path d="M101.911 14.3581L99.3761 19.622H104.431L101.911 14.3581ZM98.8947 20.6748L97.5948 23.3153C97.3058 23.9334 96.247 23.4988 96.5357 22.8308L101.382 12.8874C101.478 12.6701 101.703 12.5703 101.911 12.5703C102.12 12.5703 102.313 12.6701 102.425 12.8874L107.256 22.7803C107.673 23.4988 106.485 23.9174 106.18 23.2655L104.928 20.6748H98.8947V20.6748Z" fill="white"/>
<path d="M129.679 14.3581L127.144 19.622H132.198L129.679 14.3581ZM126.662 20.6748L125.363 23.3153C125.074 23.9334 124.014 23.4988 124.303 22.8308L129.15 12.8874C129.246 12.6701 129.47 12.5703 129.679 12.5703C129.888 12.5703 130.08 12.6701 130.192 12.8874L135.022 22.7803C135.44 23.4988 134.252 23.9174 133.947 23.2655L132.696 20.6748H126.662V20.6748Z" fill="white"/>
<path d="M143.913 13.1603C143.913 12.4522 145.133 12.4189 145.133 13.1603V22.8411C145.133 23.6839 144.026 23.7683 143.688 23.1776L137.687 14.7286L137.815 17.056V23.0096C137.815 23.8353 136.596 23.8525 136.596 23.0096V13.3461C136.596 12.5026 137.494 12.3679 137.896 12.9923L144.073 21.6771L143.913 19.1306V13.1603Z" fill="white"/>
<path d="M109.744 19.1708L105.63 13.4987C105.142 12.8215 106.216 12.1954 106.655 12.8725L110.329 18.1043L114.052 12.8553C114.459 12.2119 115.467 12.7538 115.028 13.4648L110.947 19.1708V22.9638C110.947 23.387 110.622 23.5906 110.346 23.5906C110.02 23.5906 109.744 23.387 109.744 22.9638V19.1708Z" fill="white"/>
<path d="M122.422 23.0121C121.654 23.3791 120.789 23.6125 120.02 23.6125C117.282 23.6125 114.816 21.2782 114.816 17.9765C114.816 15.242 116.69 13.074 119.156 12.6737C121.029 12.4071 122.663 12.8911 123.927 14.2747C124.408 14.8418 123.543 15.5252 123.095 15.0253C122.006 13.8245 120.741 13.6411 119.332 13.8079C117.362 14.1251 115.969 15.5757 115.969 17.9932C115.969 20.5282 117.843 22.4617 120.052 22.4617C120.645 22.4617 121.302 22.2955 121.91 21.9784C122.406 21.7117 122.887 21.3115 123.223 20.8613C123.591 20.2943 124.568 20.9112 124.152 21.5283C123.719 22.1619 123.111 22.6624 122.422 23.0121Z" fill="white"/>
<path d="M70.0441 22.4766C69.4478 22.4766 68.7866 22.3086 68.174 21.9898C67.8279 21.8034 67.4928 21.5506 67.2052 21.2632C66.5684 20.6021 66.116 19.6566 65.9956 18.6612H74.1039C73.8011 20.8676 72.0648 22.4766 70.0441 22.4766ZM70.947 12.6215C69.0607 12.3531 67.4163 12.8399 66.1427 14.2334C65.6591 14.8044 66.5298 15.4926 66.981 14.9891C68.0774 13.7803 69.3509 13.5951 70.7695 13.7631C72.6592 14.067 74.019 15.4099 74.1431 17.6422L65.5865 17.6272C64.9306 17.6272 64.745 18.039 64.7768 18.4059V18.3887C64.8987 20.4432 65.9641 21.9839 67.1206 22.7122C67.2932 22.8286 67.4722 22.9358 67.6582 23.0304C68.432 23.3997 69.3024 23.6348 70.0765 23.6348C72.8334 23.6348 75.316 21.2844 75.316 17.9604C75.316 15.207 73.4295 13.0246 70.947 12.6215Z" fill="white"/>
</g>
<defs>
<clipPath id="clip0_4736_45119">
<rect width="145.267" height="40" fill="white"/>
</clipPath>
</defs>
</svg>
